<svg width="103" height="64" viewBox="0 0 103 64" fill="none" xmlns="http://www.w3.org/2000/svg">
<path d="M73.432 0.535795C73.432 0.803795 73.9144 1.07179 74.504 1.07179C75.4688 1.07179 75.576 1.447 75.576 4.55579C75.576 7.28939 75.7368 8.03979 76.38 8.03979C77.0232 8.03979 77.184 7.34299 77.184 4.8238C77.184 1.983 77.2912 1.6078 78.256 1.6078C78.8456 1.6078 79.328 1.23259 79.328 0.803795C79.328 0.160595 78.6312 -0.00020504 76.38 -0.00020504C74.772 -0.00020504 73.432 0.214195 73.432 0.535795Z" fill="white"/>
<path d="M67.3216 2.78702C66.6248 8.57582 66.6248 9.11182 67.6432 9.11182C68.2328 9.11182 68.608 8.73662 68.608 8.09342C68.608 6.86062 71.2344 6.16382 71.6632 7.28942C71.9848 8.20062 73.432 8.30782 73.432 7.45022C73.432 6.48542 69.0368 0.535816 68.2864 0.535816C67.8576 0.535816 67.4824 1.44702 67.3216 2.78702ZM69.68 4.28782C70.1624 5.14542 70.1088 5.35982 69.412 5.35982C68.9832 5.35982 68.608 4.87742 68.608 4.28782C68.608 3.69822 68.7152 3.21582 68.876 3.21582C68.9832 3.21582 69.3584 3.69822 69.68 4.28782Z" fill="white"/>
<path d="M80.9896 4.39515C80.3464 6.21755 79.864 7.87915 79.864 8.09355C79.864 8.46875 82.812 9.64795 83.6696 9.64795C84.7952 9.64795 84.0448 8.14715 82.812 7.82555C81.6864 7.55755 81.5256 7.28955 82.008 6.48555C82.3296 5.78875 82.9192 5.57435 83.616 5.73515C84.8488 6.05675 85.1168 4.93115 83.884 4.50235C83.4552 4.28795 83.08 3.80555 83.08 3.37675C83.08 2.78715 83.4552 2.67995 84.688 2.94795C86.6712 3.37675 86.8856 2.35835 84.9024 1.60795C82.544 0.696749 82.1152 0.964749 80.9896 4.39515Z" fill="white"/>
<path d="M87.2608 6.86067C86.1352 8.57587 85.224 10.1303 85.224 10.2911C85.224 10.4519 85.8136 10.9879 86.564 11.4703C88.2792 12.5959 89.4048 12.0599 88.172 10.7199C87.3144 9.75507 87.368 9.59427 88.976 7.28947C90.4768 5.09187 90.6912 3.75187 89.6192 3.75187C89.4048 3.75187 88.3328 5.14547 87.2608 6.86067Z" fill="white"/>
<path d="M91.656 10.4519C89.3512 12.7567 88.8688 13.5071 89.4048 14.0431C89.9408 14.5791 90.6912 14.0967 93.0496 11.7383C95.4616 9.32632 95.8904 8.62952 95.2472 8.14712C94.7112 7.66472 93.9608 8.14712 91.656 10.4519Z" fill="white"/>
<path d="M94.2288 13.8822L91.1736 15.8654L92.3528 17.795C92.996 18.8134 93.8536 19.5638 94.2288 19.4566C94.7648 19.2422 94.7112 18.9206 94.0144 17.8486C93.3176 16.723 93.264 16.4014 93.8536 16.0262C94.9256 15.383 95.3008 15.4366 95.8368 16.4014C96.5336 17.6878 97.7128 16.8302 97.016 15.5438C96.212 14.043 97.4448 13.5606 98.4632 15.0078C98.9456 15.7046 99.4816 15.9726 99.8032 15.651C100.339 15.115 98.6776 11.7918 97.82 11.8454C97.552 11.8454 95.8904 12.7566 94.2288 13.8822Z" fill="white"/>
<path d="M8.4152 16.8303C4.1808 18.0095 4.1272 18.1703 3.9664 27.2287C3.8056 34.9471 3.752 35.3223 2.4656 36.6087C0.6968 38.3775 0 41.1647 0 46.3639C0 51.6703 1.072 54.1359 4.556 57.2447C7.236 59.6031 11.3096 61.3719 16.08 62.2831C22.5656 63.4623 35.4296 61.3719 45.7208 57.3519C48.8296 56.1727 50.8128 55.7439 53.332 55.7439C56.816 55.7439 56.7624 55.7439 71.556 61.2647C76.4872 63.0871 84.9024 63.8375 88.7616 62.7655C95.1936 61.0503 99.4816 54.7255 100.929 44.9167C101.572 40.5751 101.036 38.0559 99.4816 38.0559C98.1952 38.0559 97.552 39.3959 96.748 43.7375C95.7296 48.9903 93.9072 52.1527 90.6912 54.1895C88.44 55.5831 87.7968 55.7439 83.4552 55.7439C77.8272 55.7439 75.04 55.1007 65.66 51.5631C56.0656 47.9183 53.868 47.4895 49.58 48.5079C47.6504 48.9367 44.5952 49.9015 42.7728 50.6519C33.8752 54.2967 22.1904 56.0119 15.4904 54.7255C8.6296 53.3319 4.0736 49.8479 4.3952 46.1495C4.556 44.0055 4.9848 43.8983 9.0048 45.1311C10.988 45.7207 11.524 45.6671 12.7568 44.9703C13.9896 44.3271 14.204 43.7911 14.3648 41.5399C14.6328 35.9119 14.7936 35.8583 17.6344 40.2535C20.3144 44.4343 21.8152 45.5599 24.9776 45.5599C27.068 45.5599 29.48 43.6303 29.48 41.9687C29.48 41.4327 28.5152 39.5567 27.3896 37.7879L25.2992 34.6255L26.8 32.8567C30.9808 28.1399 29.4264 20.9575 23.584 17.6879C21.5472 16.6159 20.3144 16.3479 16.08 16.2407C12.9712 16.1335 9.9696 16.4015 8.4152 16.8303ZM18.1168 25.8351C19.1888 26.9071 18.8672 28.3543 17.4736 28.7295C15.7584 29.1583 15.008 28.6223 15.008 27.0679C15.008 25.3527 16.884 24.6023 18.1168 25.8351Z" fill="white"/>
<path d="M35.0544 16.6158C34.4112 16.8302 33.3928 17.6878 32.8032 18.4918L31.6776 19.8854L32.964 22.7798C33.6608 24.3878 35.4832 28.0862 36.984 31.0342C39.0208 35.1078 39.664 37.0374 39.664 38.8062C39.664 42.0758 40.5216 43.7374 42.7728 44.8094C45.024 45.8814 48.6688 45.5598 49.6872 44.1662C50.0624 43.6302 50.384 41.7542 50.384 39.8246C50.384 36.7158 50.7056 35.8582 53.868 29.4798C55.7976 25.6742 57.352 21.8686 57.352 21.011C57.352 19.0814 56.1728 17.4734 54.1896 16.6694C51.0272 15.3294 50.3304 15.8654 47.7576 21.8686C46.4176 24.8702 45.1848 27.175 45.024 26.9606C44.8096 26.6926 43.8984 24.6022 42.9336 22.2438C41.9688 19.8854 40.736 17.527 40.0928 16.991C38.9136 16.0262 36.9304 15.8654 35.0544 16.6158Z" fill="white"/>
<path d="M68.1792 17.0446C62.7656 18.9742 59.3888 24.0126 59.2816 30.2838C59.1208 39.4494 64.8024 45.5598 73.5392 45.5598C82.7584 45.5598 88.44 40.1462 88.3864 31.3558C88.3864 24.9774 86.028 20.475 81.3648 17.9558C77.6664 15.9726 72.3064 15.5974 68.1792 17.0446ZM75.576 26.7998C77.988 28.0862 78.0416 33.0174 75.6832 34.8398C71.9848 37.7878 68.2328 31.5702 71.3416 27.6574C72.4672 26.2102 73.9144 25.8886 75.576 26.7998Z" fill="white"/>
<path d="M97.284 19.7248C94.068 20.636 93.264 21.8152 96.1048 21.5472C97.9272 21.3864 97.9808 22.1368 96.212 23.4768C95.4616 24.0664 94.872 24.8168 94.872 25.1384C94.872 25.996 96.2656 25.8352 97.016 24.924C97.4984 24.3344 98.2488 24.1736 99.4816 24.4416C100.929 24.7096 101.358 24.5488 102.054 23.4768C103.019 22.0296 102.537 19.0816 101.25 18.9208C100.822 18.8672 99.0528 19.2424 97.284 19.7248ZM101.304 21.708C101.304 22.8336 99.696 23.3696 99.1064 22.4584C98.356 21.2256 98.5168 20.904 99.964 20.904C100.822 20.904 101.304 21.2256 101.304 21.708Z" fill="white"/>
</svg>
